# xmcd
#
# Track frame offsets: 
#        192
#        13920
#        31712
#
# Disc length: 566 seconds
#
# Revision: 3
# Processed by: cddbd v1.5.2PL0 Copyright (c) Steve Scherf et al.
# Submitted via: ExactAudioCopyFreeDBPlugin 1.0
#
DISCID=18023403
DTITLE=Nick Cave and Shane MacGowan - What A Wonderful World
DYEAR=1992
DGENRE=Alternative
TTITLE0=What A Wonderful World
TTITLE1=Nick Cave - Rainy Night In Soho
TTITLE2=Shane MacGowan - Lucy
EXTD=
EXTT0=
EXTT1=
EXTT2=
PLAYORDER=
